<svg width="603" height="691" viewBox="0 0 603 691" fill="none" xmlns="http://www.w3.org/2000/svg">
<rect width="603" height="691" rx="100" fill="#CC61FE"/>
<path d="M184.4 276V224.4H134.3V184.2H184.4V133.8H230.6V184.2H278V224.4H230.6V276H184.4ZM377.912 295.5C351.912 295.5 332.212 287.8 318.812 272.4C305.612 256.8 299.012 232.7 299.012 200.1C299.012 166.5 305.912 141 319.712 123.6C333.512 106 353.312 97.2 379.112 97.2C391.512 97.2 402.912 98.9 413.312 102.3C423.912 105.5 432.212 108.9 438.212 112.5L426.812 146.4C421.412 144 415.712 142 409.712 140.4C403.912 138.6 397.412 137.7 390.212 137.7C377.212 137.7 367.212 141.2 360.212 148.2C353.212 155 349.712 165.8 349.712 180.6C353.712 177.6 359.112 175 365.912 172.8C372.912 170.6 380.712 169.5 389.312 169.5C407.512 169.5 421.512 174.8 431.312 185.4C441.112 196 446.012 211.1 446.012 230.7C446.012 242.7 443.812 253.6 439.412 263.4C435.212 273.2 428.112 281 418.112 286.8C408.312 292.6 394.912 295.5 377.912 295.5ZM374.612 255C381.612 255 386.712 252.8 389.912 248.4C393.312 244 395.012 238.4 395.012 231.6C395.012 224.4 393.212 218.8 389.612 214.8C386.212 210.6 381.312 208.5 374.912 208.5C371.112 208.5 367.012 209.3 362.612 210.9C358.212 212.5 354.712 214.7 352.112 217.5V228C352.112 237.8 354.312 244.8 358.712 249C363.112 253 368.412 255 374.612 255Z" fill="white"/>
<path d="M111.53 471V454.27L94.1 426.48H108.03L117.41 443H117.83L126.58 426.48H140.37L124.9 453.85V471H111.53ZM158.754 471.42C155.02 471.42 151.707 470.673 148.814 469.18C145.967 467.687 143.727 465.517 142.094 462.67C140.46 459.823 139.644 456.393 139.644 452.38C139.644 446.733 141.207 442.393 144.334 439.36C147.507 436.28 151.754 434.74 157.074 434.74C160.807 434.74 163.84 435.463 166.174 436.91C168.554 438.31 170.304 440.2 171.424 442.58C172.544 444.96 173.104 447.597 173.104 450.49C173.104 451.517 173.034 452.59 172.894 453.71C172.8 454.783 172.637 455.857 172.404 456.93H150.634C150.867 459.31 151.847 460.92 153.574 461.76C155.347 462.6 157.377 463.02 159.664 463.02C161.577 463.02 163.327 462.81 164.914 462.39C166.5 461.923 167.784 461.317 168.764 460.57L171.774 467.57C170.607 468.55 168.857 469.437 166.524 470.23C164.237 471.023 161.647 471.42 158.754 471.42ZM150.634 449.86H163.304C163.304 447.993 162.767 446.43 161.694 445.17C160.667 443.863 159.104 443.21 157.004 443.21C154.997 443.21 153.434 443.817 152.314 445.03C151.194 446.243 150.634 447.853 150.634 449.86ZM205.067 474.64L200.657 469.32C198.464 470.673 195.734 471.35 192.467 471.35C188.127 471.35 184.744 470.23 182.317 467.99C179.89 465.703 178.677 462.717 178.677 459.03C178.677 455.67 179.704 453.08 181.757 451.26C183.81 449.393 186.797 448.46 190.717 448.46H199.327V447.34C199.327 445.987 198.72 444.983 197.507 444.33C196.294 443.63 194.567 443.28 192.327 443.28C190.6 443.28 188.99 443.49 187.497 443.91C186.05 444.283 184.65 444.867 183.297 445.66L180.567 437.54C182.34 436.56 184.324 435.86 186.517 435.44C188.71 434.973 190.904 434.74 193.097 434.74C198.51 434.74 202.757 435.907 205.837 438.24C208.917 440.527 210.457 443.607 210.457 447.48V463.44L213.747 467.43L205.067 474.64ZM194.217 462.67C195.99 462.67 197.297 462.11 198.137 460.99C198.977 459.823 199.397 458.657 199.397 457.49V455.53H194.217C192.77 455.53 191.674 455.833 190.927 456.44C190.227 457.047 189.877 457.887 189.877 458.96C189.877 460.127 190.274 461.037 191.067 461.69C191.907 462.343 192.957 462.67 194.217 462.67ZM218.615 471V441.32C220.249 439.453 222.255 437.89 224.635 436.63C227.062 435.37 229.839 434.74 232.965 434.74C236.792 434.74 240.152 435.72 243.045 437.68L240.105 445.73C239.405 445.263 238.565 444.913 237.585 444.68C236.652 444.447 235.789 444.33 234.995 444.33C234.015 444.33 233.105 444.47 232.265 444.75C231.472 444.983 230.889 445.263 230.515 445.59V471H218.615ZM261.694 472.4C258.148 472.4 254.881 471.84 251.894 470.72C248.954 469.6 246.714 468.387 245.174 467.08L248.744 459.59C249.911 460.477 251.568 461.317 253.714 462.11C255.861 462.903 258.054 463.3 260.294 463.3C261.974 463.3 263.211 463.043 264.004 462.53C264.798 462.017 265.194 461.317 265.194 460.43C265.194 459.637 264.891 459.053 264.284 458.68C263.678 458.307 262.768 458.027 261.554 457.84L258.194 457.28C254.228 456.627 251.171 455.39 249.024 453.57C246.878 451.703 245.804 449.207 245.804 446.08C245.804 444.073 246.294 442.23 247.274 440.55C248.301 438.87 249.864 437.517 251.964 436.49C254.111 435.463 256.888 434.95 260.294 434.95C263.654 434.95 266.641 435.393 269.254 436.28C271.914 437.12 273.898 438.007 275.204 438.94L272.334 446.43C271.588 445.917 270.584 445.473 269.324 445.1C268.111 444.68 266.804 444.353 265.404 444.12C264.004 443.887 262.674 443.77 261.414 443.77C258.474 443.77 257.004 444.493 257.004 445.94C257.004 446.64 257.284 447.223 257.844 447.69C258.404 448.11 259.034 448.367 259.734 448.46L264.004 449.16C268.718 449.907 271.961 451.19 273.734 453.01C275.508 454.83 276.394 457.14 276.394 459.94C276.394 462.133 275.904 464.187 274.924 466.1C273.944 467.967 272.381 469.483 270.234 470.65C268.088 471.817 265.241 472.4 261.694 472.4ZM95.5 553V508.48H127.56V517.58H107.4V525.84H124.83V534.94H107.4V543.9H127.98V553H95.5ZM132.16 553L146.37 535.15L132.79 517.16H145.25L153.09 527.8L160.79 517.16H173.46L160.3 534.94L173.6 553H160.65L153.23 542.5L145.46 553H132.16ZM178.488 565.88V521.92C179.562 520.847 181.078 519.937 183.038 519.19C185.045 518.397 187.215 517.79 189.548 517.37C191.882 516.95 194.098 516.74 196.198 516.74C202.312 516.74 206.862 518.42 209.848 521.78C212.835 525.093 214.328 529.503 214.328 535.01C214.328 539.163 213.535 542.617 211.948 545.37C210.408 548.077 208.308 550.107 205.648 551.46C203.035 552.767 200.142 553.42 196.968 553.42C194.168 553.42 191.742 552.977 189.688 552.09V565.88H178.488ZM195.918 543.83C198.018 543.83 199.675 543.083 200.888 541.59C202.102 540.097 202.708 537.997 202.708 535.29C202.708 532.163 201.938 529.83 200.398 528.29C198.905 526.703 197.062 525.91 194.868 525.91C193.048 525.91 191.322 526.283 189.688 527.03V537.74C189.688 539.933 190.342 541.497 191.648 542.43C192.955 543.363 194.378 543.83 195.918 543.83ZM239.008 553.42C235.274 553.42 231.961 552.673 229.068 551.18C226.221 549.687 223.981 547.517 222.348 544.67C220.714 541.823 219.898 538.393 219.898 534.38C219.898 528.733 221.461 524.393 224.588 521.36C227.761 518.28 232.008 516.74 237.328 516.74C241.061 516.74 244.094 517.463 246.428 518.91C248.808 520.31 250.558 522.2 251.678 524.58C252.798 526.96 253.358 529.597 253.358 532.49C253.358 533.517 253.288 534.59 253.148 535.71C253.054 536.783 252.891 537.857 252.658 538.93H230.888C231.121 541.31 232.101 542.92 233.828 543.76C235.601 544.6 237.631 545.02 239.918 545.02C241.831 545.02 243.581 544.81 245.168 544.39C246.754 543.923 248.038 543.317 249.018 542.57L252.028 549.57C250.861 550.55 249.111 551.437 246.778 552.23C244.491 553.023 241.901 553.42 239.008 553.42ZM230.888 531.86H243.558C243.558 529.993 243.021 528.43 241.948 527.17C240.921 525.863 239.358 525.21 237.258 525.21C235.251 525.21 233.688 525.817 232.568 527.03C231.448 528.243 230.888 529.853 230.888 531.86ZM259.631 553V523.32C261.264 521.453 263.271 519.89 265.651 518.63C268.078 517.37 270.854 516.74 273.981 516.74C277.808 516.74 281.168 517.72 284.061 519.68L281.121 527.73C280.421 527.263 279.581 526.913 278.601 526.68C277.668 526.447 276.804 526.33 276.011 526.33C275.031 526.33 274.121 526.47 273.281 526.75C272.488 526.983 271.904 527.263 271.531 527.59V553H259.631ZM288.957 553V519.26H300.157V553H288.957ZM294.557 514.92C292.69 514.92 291.174 514.337 290.007 513.17C288.84 512.003 288.257 510.557 288.257 508.83C288.257 507.103 288.84 505.657 290.007 504.49C291.174 503.323 292.69 502.74 294.557 502.74C296.47 502.74 297.987 503.323 299.107 504.49C300.274 505.657 300.857 507.103 300.857 508.83C300.857 510.557 300.274 512.003 299.107 513.17C297.987 514.337 296.47 514.92 294.557 514.92ZM325.551 553.42C321.817 553.42 318.504 552.673 315.611 551.18C312.764 549.687 310.524 547.517 308.891 544.67C307.257 541.823 306.441 538.393 306.441 534.38C306.441 528.733 308.004 524.393 311.131 521.36C314.304 518.28 318.551 516.74 323.871 516.74C327.604 516.74 330.637 517.463 332.971 518.91C335.351 520.31 337.101 522.2 338.221 524.58C339.341 526.96 339.901 529.597 339.901 532.49C339.901 533.517 339.831 534.59 339.691 535.71C339.597 536.783 339.434 537.857 339.201 538.93H317.431C317.664 541.31 318.644 542.92 320.371 543.76C322.144 544.6 324.174 545.02 326.461 545.02C328.374 545.02 330.124 544.81 331.711 544.39C333.297 543.923 334.581 543.317 335.561 542.57L338.571 549.57C337.404 550.55 335.654 551.437 333.321 552.23C331.034 553.023 328.444 553.42 325.551 553.42ZM317.431 531.86H330.101C330.101 529.993 329.564 528.43 328.491 527.17C327.464 525.863 325.901 525.21 323.801 525.21C321.794 525.21 320.231 525.817 319.111 527.03C317.991 528.243 317.431 529.853 317.431 531.86ZM373.404 557.83L367.734 552.16V533.12C367.734 531.207 367.22 529.737 366.194 528.71C365.167 527.683 363.674 527.17 361.714 527.17C360.874 527.17 360.08 527.263 359.334 527.45C358.587 527.637 357.934 527.893 357.374 528.22V553H346.174V522.83C347.947 521.057 350.35 519.633 353.384 518.56C356.464 517.44 359.8 516.88 363.394 516.88C368.574 516.88 372.447 518.07 375.014 520.45C377.627 522.783 378.934 525.957 378.934 529.97V546.91L382.084 550.48L373.404 557.83ZM405.184 553.28C401.498 553.28 398.231 552.533 395.384 551.04C392.538 549.547 390.298 547.377 388.664 544.53C387.078 541.683 386.284 538.23 386.284 534.17C386.284 528.663 387.824 524.3 390.904 521.08C393.984 517.86 398.441 516.25 404.274 516.25C406.468 516.25 408.614 516.507 410.714 517.02C412.861 517.487 414.798 518.233 416.524 519.26L413.794 527.17C411.928 526.05 409.688 525.49 407.074 525.49C404.088 525.49 401.801 526.237 400.214 527.73C398.674 529.223 397.904 531.37 397.904 534.17C397.904 537.297 398.814 539.723 400.634 541.45C402.454 543.177 404.858 544.04 407.844 544.04C409.198 544.04 410.528 543.853 411.834 543.48C413.188 543.107 414.331 542.57 415.264 541.87L418.344 548.8C416.944 549.92 415.194 550.947 413.094 551.88C410.994 552.813 408.358 553.28 405.184 553.28ZM443.06 553.42C439.327 553.42 436.014 552.673 433.12 551.18C430.274 549.687 428.034 547.517 426.4 544.67C424.767 541.823 423.95 538.393 423.95 534.38C423.95 528.733 425.514 524.393 428.64 521.36C431.814 518.28 436.06 516.74 441.38 516.74C445.114 516.74 448.147 517.463 450.48 518.91C452.86 520.31 454.61 522.2 455.73 524.58C456.85 526.96 457.41 529.597 457.41 532.49C457.41 533.517 457.34 534.59 457.2 535.71C457.107 536.783 456.944 537.857 456.71 538.93H434.94C435.174 541.31 436.154 542.92 437.88 543.76C439.654 544.6 441.684 545.02 443.97 545.02C445.884 545.02 447.634 544.81 449.22 544.39C450.807 543.923 452.09 543.317 453.07 542.57L456.08 549.57C454.914 550.55 453.164 551.437 450.83 552.23C448.544 553.023 445.954 553.42 443.06 553.42ZM434.94 531.86H447.61C447.61 529.993 447.074 528.43 446 527.17C444.974 525.863 443.41 525.21 441.31 525.21C439.304 525.21 437.74 525.817 436.62 527.03C435.5 528.243 434.94 529.853 434.94 531.86Z" fill="white"/>
</svg>
