<svg width="603" height="691" viewBox="0 0 603 691" fill="none" xmlns="http://www.w3.org/2000/svg">
<rect width="603" height="691" rx="100" fill="#FF5801"/>
<path d="M193.059 258.9L118.039 213.8V188.28L193.059 143.18L207.139 172L148.839 201.04L207.139 230.08L193.059 258.9ZM293.828 294.1L261.487 284.86L309.448 111.06L341.568 119.64L293.828 294.1ZM410.152 258.9L396.072 230.08L454.372 201.04L396.072 172L410.152 143.18L485.172 188.28V213.8L410.152 258.9Z" fill="white"/>
<path d="M95.5 471V428.93C97.6933 427.997 100.213 427.32 103.06 426.9C105.907 426.433 108.683 426.2 111.39 426.2C117.55 426.2 122.17 427.297 125.25 429.49C128.377 431.683 129.94 434.577 129.94 438.17C129.94 440.41 129.357 442.44 128.19 444.26C127.023 446.08 125.413 447.34 123.36 448.04C125.787 448.647 127.723 449.883 129.17 451.75C130.617 453.57 131.34 455.997 131.34 459.03C131.34 461.503 130.757 463.65 129.59 465.47C128.423 467.243 126.51 468.62 123.85 469.6C121.237 470.533 117.713 471 113.28 471H95.5ZM107.26 444.26H113.21C114.61 444.26 115.73 443.817 116.57 442.93C117.457 442.043 117.9 440.97 117.9 439.71C117.9 438.59 117.433 437.563 116.5 436.63C115.613 435.65 113.933 435.16 111.46 435.16C110.853 435.16 110.153 435.207 109.36 435.3C108.613 435.347 107.913 435.463 107.26 435.65V444.26ZM107.26 462.04H114.05C115.59 462.04 116.803 461.643 117.69 460.85C118.577 460.057 119.02 458.96 119.02 457.56C119.02 456.3 118.623 455.273 117.83 454.48C117.037 453.64 115.8 453.22 114.12 453.22H107.26V462.04ZM156.019 471.42C152.286 471.42 148.973 470.673 146.079 469.18C143.233 467.687 140.993 465.517 139.359 462.67C137.726 459.823 136.909 456.393 136.909 452.38C136.909 446.733 138.473 442.393 141.599 439.36C144.773 436.28 149.019 434.74 154.339 434.74C158.073 434.74 161.106 435.463 163.439 436.91C165.819 438.31 167.569 440.2 168.689 442.58C169.809 444.96 170.369 447.597 170.369 450.49C170.369 451.517 170.299 452.59 170.159 453.71C170.066 454.783 169.903 455.857 169.669 456.93H147.899C148.133 459.31 149.113 460.92 150.839 461.76C152.613 462.6 154.643 463.02 156.929 463.02C158.843 463.02 160.593 462.81 162.179 462.39C163.766 461.923 165.049 461.317 166.029 460.57L169.039 467.57C167.873 468.55 166.123 469.437 163.789 470.23C161.503 471.023 158.913 471.42 156.019 471.42ZM147.899 449.86H160.569C160.569 447.993 160.033 446.43 158.959 445.17C157.933 443.863 156.369 443.21 154.269 443.21C152.263 443.21 150.699 443.817 149.579 445.03C148.459 446.243 147.899 447.853 147.899 449.86ZM191.763 472.4C188.216 472.4 184.949 471.84 181.963 470.72C179.023 469.6 176.783 468.387 175.243 467.08L178.813 459.59C179.979 460.477 181.636 461.317 183.783 462.11C185.929 462.903 188.123 463.3 190.363 463.3C192.043 463.3 193.279 463.043 194.073 462.53C194.866 462.017 195.263 461.317 195.263 460.43C195.263 459.637 194.959 459.053 194.353 458.68C193.746 458.307 192.836 458.027 191.623 457.84L188.263 457.28C184.296 456.627 181.239 455.39 179.093 453.57C176.946 451.703 175.873 449.207 175.873 446.08C175.873 444.073 176.363 442.23 177.343 440.55C178.369 438.87 179.933 437.517 182.033 436.49C184.179 435.463 186.956 434.95 190.363 434.95C193.723 434.95 196.709 435.393 199.323 436.28C201.983 437.12 203.966 438.007 205.273 438.94L202.403 446.43C201.656 445.917 200.653 445.473 199.393 445.1C198.179 444.68 196.873 444.353 195.473 444.12C194.073 443.887 192.743 443.77 191.483 443.77C188.543 443.77 187.073 444.493 187.073 445.94C187.073 446.64 187.353 447.223 187.913 447.69C188.473 448.11 189.103 448.367 189.803 448.46L194.073 449.16C198.786 449.907 202.029 451.19 203.803 453.01C205.576 454.83 206.463 457.14 206.463 459.94C206.463 462.133 205.973 464.187 204.993 466.1C204.013 467.967 202.449 469.483 200.303 470.65C198.156 471.817 195.309 472.4 191.763 472.4ZM230.393 471.49C227.686 471.49 225.283 471.047 223.183 470.16C221.083 469.273 219.426 467.85 218.213 465.89C217.046 463.93 216.463 461.34 216.463 458.12V444.68H210.653V436.35H216.743V426.48H227.943V436.35H237.463V444.75H228.013V457.77C228.013 459.543 228.433 460.757 229.273 461.41C230.159 462.063 231.209 462.39 232.423 462.39C233.169 462.39 233.986 462.32 234.873 462.18C235.806 461.993 236.529 461.737 237.043 461.41L238.933 469.67C237.766 470.323 236.413 470.79 234.873 471.07C233.379 471.35 231.886 471.49 230.393 471.49ZM95.5 553V513.45C96.62 512.563 98.1133 511.723 99.98 510.93C101.847 510.137 103.947 509.483 106.28 508.97C108.66 508.457 111.11 508.2 113.63 508.2C119.417 508.2 123.99 509.647 127.35 512.54C130.71 515.387 132.39 519.493 132.39 524.86C132.39 528.593 131.597 531.72 130.01 534.24C128.47 536.713 126.37 538.557 123.71 539.77C121.097 540.983 118.203 541.59 115.03 541.59C113.35 541.59 111.88 541.427 110.62 541.1C109.407 540.773 108.333 540.353 107.4 539.84V553H95.5ZM114.05 532C115.963 532 117.503 531.393 118.67 530.18C119.883 528.967 120.49 527.147 120.49 524.72C120.49 522.433 119.883 520.66 118.67 519.4C117.457 518.093 115.543 517.44 112.93 517.44C110.783 517.44 108.94 517.86 107.4 518.7V525.7C107.4 527.893 108.077 529.503 109.43 530.53C110.783 531.51 112.323 532 114.05 532ZM138.703 553V523.32C140.336 521.453 142.343 519.89 144.723 518.63C147.15 517.37 149.926 516.74 153.053 516.74C156.88 516.74 160.24 517.72 163.133 519.68L160.193 527.73C159.493 527.263 158.653 526.913 157.673 526.68C156.74 526.447 155.876 526.33 155.083 526.33C154.103 526.33 153.193 526.47 152.353 526.75C151.56 526.983 150.976 527.263 150.603 527.59V553H138.703ZM183.427 553.63C179.553 553.63 176.193 552.86 173.347 551.32C170.547 549.78 168.377 547.587 166.837 544.74C165.297 541.893 164.527 538.533 164.527 534.66C164.527 528.827 166.207 524.347 169.567 521.22C172.973 518.047 177.547 516.46 183.287 516.46C189.027 516.46 193.6 518.047 197.007 521.22C200.413 524.393 202.117 528.92 202.117 534.8C202.117 538.627 201.37 541.963 199.877 544.81C198.383 547.61 196.237 549.78 193.437 551.32C190.637 552.86 187.3 553.63 183.427 553.63ZM183.427 544.25C185.76 544.25 187.533 543.387 188.747 541.66C190.007 539.933 190.637 537.647 190.637 534.8C190.637 531.767 189.96 529.503 188.607 528.01C187.3 526.47 185.527 525.7 183.287 525.7C181.047 525.7 179.25 526.47 177.897 528.01C176.59 529.503 175.937 531.743 175.937 534.73C175.937 537.623 176.613 539.933 177.967 541.66C179.32 543.387 181.14 544.25 183.427 544.25ZM223.9 566.37C220.213 566.37 217.016 565.81 214.31 564.69C211.603 563.617 209.41 562.38 207.73 560.98L211.37 552.79C213.236 554.097 215.196 555.123 217.25 555.87C219.303 556.617 221.426 556.99 223.62 556.99C226.233 556.99 228.17 556.477 229.43 555.45C230.736 554.47 231.39 553.21 231.39 551.67V548.73C230.456 549.15 229.383 549.477 228.17 549.71C227.003 549.897 225.79 549.99 224.53 549.99C221.73 549.99 219.046 549.43 216.48 548.31C213.913 547.19 211.813 545.417 210.18 542.99C208.546 540.563 207.73 537.367 207.73 533.4C207.73 527.94 209.316 523.81 212.49 521.01C215.71 518.163 219.956 516.74 225.23 516.74C227.283 516.74 229.453 516.95 231.74 517.37C234.073 517.79 236.22 518.397 238.18 519.19C240.14 519.937 241.656 520.847 242.73 521.92V551.53C242.73 554.797 241.866 557.527 240.14 559.72C238.46 561.96 236.196 563.617 233.35 564.69C230.503 565.81 227.353 566.37 223.9 566.37ZM226.28 540.75C227.773 540.75 229.01 540.283 229.99 539.35C231.016 538.37 231.53 536.76 231.53 534.52V526.89C230.97 526.657 230.2 526.447 229.22 526.26C228.24 526.073 227.306 525.98 226.42 525.98C224.18 525.98 222.43 526.633 221.17 527.94C219.956 529.247 219.35 531.043 219.35 533.33C219.35 535.103 219.7 536.55 220.4 537.67C221.1 538.743 221.963 539.537 222.99 540.05C224.063 540.517 225.16 540.75 226.28 540.75ZM249.719 553V523.32C251.352 521.453 253.359 519.89 255.739 518.63C258.165 517.37 260.942 516.74 264.069 516.74C267.895 516.74 271.255 517.72 274.149 519.68L271.209 527.73C270.509 527.263 269.669 526.913 268.689 526.68C267.755 526.447 266.892 526.33 266.099 526.33C265.119 526.33 264.209 526.47 263.369 526.75C262.575 526.983 261.992 527.263 261.619 527.59V553H249.719ZM304.735 556.64L300.325 551.32C298.132 552.673 295.402 553.35 292.135 553.35C287.795 553.35 284.412 552.23 281.985 549.99C279.558 547.703 278.345 544.717 278.345 541.03C278.345 537.67 279.372 535.08 281.425 533.26C283.478 531.393 286.465 530.46 290.385 530.46H298.995V529.34C298.995 527.987 298.388 526.983 297.175 526.33C295.962 525.63 294.235 525.28 291.995 525.28C290.268 525.28 288.658 525.49 287.165 525.91C285.718 526.283 284.318 526.867 282.965 527.66L280.235 519.54C282.008 518.56 283.992 517.86 286.185 517.44C288.378 516.973 290.572 516.74 292.765 516.74C298.178 516.74 302.425 517.907 305.505 520.24C308.585 522.527 310.125 525.607 310.125 529.48V545.44L313.415 549.43L304.735 556.64ZM293.885 544.67C295.658 544.67 296.965 544.11 297.805 542.99C298.645 541.823 299.065 540.657 299.065 539.49V537.53H293.885C292.438 537.53 291.342 537.833 290.595 538.44C289.895 539.047 289.545 539.887 289.545 540.96C289.545 542.127 289.942 543.037 290.735 543.69C291.575 544.343 292.625 544.67 293.885 544.67ZM367.073 557.83L361.403 552.16V533.4C361.403 531.58 360.89 530.133 359.863 529.06C358.837 527.987 357.343 527.45 355.383 527.45C354.543 527.45 353.75 527.543 353.003 527.73C352.257 527.917 351.603 528.173 351.043 528.5V553H339.843V533.12C339.843 531.207 339.33 529.737 338.303 528.71C337.277 527.683 335.783 527.17 333.823 527.17C332.983 527.17 332.19 527.263 331.443 527.45C330.697 527.637 330.043 527.893 329.483 528.22V553H318.283V522.83C320.057 521.057 322.413 519.633 325.353 518.56C328.293 517.44 331.21 516.88 334.103 516.88C336.717 516.88 339.027 517.323 341.033 518.21C343.04 519.05 344.627 520.147 345.793 521.5C347.007 520.24 348.64 519.167 350.693 518.28C352.747 517.347 355.127 516.88 357.833 516.88C360.727 516.88 363.27 517.463 365.463 518.63C367.703 519.797 369.453 521.523 370.713 523.81C371.973 526.05 372.603 528.803 372.603 532.07V546.91L375.753 550.48L367.073 557.83ZM429.417 557.83L423.747 552.16V533.4C423.747 531.58 423.234 530.133 422.207 529.06C421.18 527.987 419.687 527.45 417.727 527.45C416.887 527.45 416.094 527.543 415.347 527.73C414.6 527.917 413.947 528.173 413.387 528.5V553H402.187V533.12C402.187 531.207 401.674 529.737 400.647 528.71C399.62 527.683 398.127 527.17 396.167 527.17C395.327 527.17 394.534 527.263 393.787 527.45C393.04 527.637 392.387 527.893 391.827 528.22V553H380.627V522.83C382.4 521.057 384.757 519.633 387.697 518.56C390.637 517.44 393.554 516.88 396.447 516.88C399.06 516.88 401.37 517.323 403.377 518.21C405.384 519.05 406.97 520.147 408.137 521.5C409.35 520.24 410.984 519.167 413.037 518.28C415.09 517.347 417.47 516.88 420.177 516.88C423.07 516.88 425.614 517.463 427.807 518.63C430.047 519.797 431.797 521.523 433.057 523.81C434.317 526.05 434.947 528.803 434.947 532.07V546.91L438.097 550.48L429.417 557.83ZM461.381 553.42C457.647 553.42 454.334 552.673 451.441 551.18C448.594 549.687 446.354 547.517 444.721 544.67C443.087 541.823 442.271 538.393 442.271 534.38C442.271 528.733 443.834 524.393 446.961 521.36C450.134 518.28 454.381 516.74 459.701 516.74C463.434 516.74 466.467 517.463 468.801 518.91C471.181 520.31 472.931 522.2 474.051 524.58C475.171 526.96 475.731 529.597 475.731 532.49C475.731 533.517 475.661 534.59 475.521 535.71C475.427 536.783 475.264 537.857 475.031 538.93H453.261C453.494 541.31 454.474 542.92 456.201 543.76C457.974 544.6 460.004 545.02 462.291 545.02C464.204 545.02 465.954 544.81 467.541 544.39C469.127 543.923 470.411 543.317 471.391 542.57L474.401 549.57C473.234 550.55 471.484 551.437 469.151 552.23C466.864 553.023 464.274 553.42 461.381 553.42ZM453.261 531.86H465.931C465.931 529.993 465.394 528.43 464.321 527.17C463.294 525.863 461.731 525.21 459.631 525.21C457.624 525.21 456.061 525.817 454.941 527.03C453.821 528.243 453.261 529.853 453.261 531.86ZM482.004 553V523.32C483.637 521.453 485.644 519.89 488.024 518.63C490.451 517.37 493.227 516.74 496.354 516.74C500.181 516.74 503.541 517.72 506.434 519.68L503.494 527.73C502.794 527.263 501.954 526.913 500.974 526.68C500.041 526.447 499.177 526.33 498.384 526.33C497.404 526.33 496.494 526.47 495.654 526.75C494.861 526.983 494.277 527.263 493.904 527.59V553H482.004Z" fill="white"/>
</svg>
