<svg width="2262" height="430" viewBox="0 0 2262 430" fill="none" xmlns="http://www.w3.org/2000/svg">
<path d="M349.469 350L297.516 298.242V142.578L349.469 90.8203H383.844V350H349.469ZM454.937 194.727V142.578H397.516V90.8203H489.508L541.266 142.578V194.727H454.937ZM397.516 350V298.242H454.937V260.352H541.266V298.242L489.508 350H397.516ZM623.883 350L572.125 298.242V194.336L623.883 142.578H681.891V194.336H659.43V301.562H681.891V350H623.883ZM695.562 350V301.562H717.047V194.336H695.562V142.578H753.375L805.133 194.336V298.242L753.375 350H695.562ZM981.695 350V194.336H944.586V171.68L973.492 142.578H1021.54L1068.22 189.258V350H981.695ZM843.414 350V142.578H930.523V350H843.414Z" fill="white"/>
<path d="M150.187 303.125C134.562 295.703 119.263 288.542 104.289 281.641C97.9088 278.776 91.2682 275.846 84.3672 272.852C77.4661 269.727 70.6302 266.797 63.8594 264.062C57.2187 261.198 50.7734 258.594 44.5234 256.25C38.4036 253.776 32.8047 251.693 27.7266 250C28.5078 238.542 28.8984 227.474 28.8984 216.797C28.8984 211.849 28.8333 207.292 28.7031 203.125C28.5729 198.828 28.4427 195.117 28.3125 191.992C28.0521 188.346 27.8568 185.026 27.7266 182.031C31.8932 179.948 36.6458 177.279 41.9844 174.023C47.4531 170.768 53.1823 167.187 59.1719 163.281C65.2917 159.375 71.5417 155.273 77.9219 150.977C84.3021 146.549 90.487 142.253 96.4766 138.086C110.539 128.19 125.122 117.643 140.227 106.445L160.539 165.625C153.768 167.708 146.346 170.312 138.273 173.437C130.201 176.562 121.867 180.013 113.273 183.789C104.81 187.565 96.2812 191.667 87.6875 196.094C79.0937 200.521 70.9557 205.143 63.2734 209.961C69.263 213.867 75.3177 217.513 81.4375 220.898C87.6875 224.154 94.5234 227.409 101.945 230.664C109.497 233.919 117.961 237.24 127.336 240.625C136.841 243.88 147.909 247.526 160.539 251.562L150.187 303.125Z" fill="white"/>
<path d="M1314.48 350V298.242H1378.54V142.578H1314.48V90.8203H1413.11L1465.07 142.578V298.242L1413.11 350H1314.48ZM1214.48 350V90.8203H1300.81V350H1214.48ZM1552.57 350L1500.81 298.242V194.336L1552.57 142.578H1587.14V350H1552.57ZM1600.81 266.797V230.664H1646.32V194.336H1600.81V142.578H1674.05L1725.81 194.336V266.797H1600.81ZM1600.81 350V301.562H1716.82V324.023L1691.04 350H1600.81ZM1811.36 350L1733.82 142.578H1819.56L1893.39 350H1811.36ZM1902.18 338.477L1863.5 228.711L1891.43 142.578H1972.1L1902.18 338.477Z" fill="white"/>
<path d="M2107.96 271.562C2120.59 267.526 2131.59 263.88 2140.96 260.625C2150.47 257.24 2158.93 253.919 2166.36 250.664C2173.91 247.409 2180.74 244.154 2186.86 240.898C2193.11 237.513 2199.23 233.867 2205.22 229.961C2197.54 225.143 2189.4 220.521 2180.81 216.094C2172.35 211.667 2163.82 207.565 2155.22 203.789C2146.76 200.013 2138.43 196.562 2130.22 193.438C2122.15 190.312 2114.73 187.708 2107.96 185.625L2128.46 126.445C2143.57 137.643 2158.15 148.19 2172.21 158.086C2178.2 162.253 2184.32 166.549 2190.57 170.977C2196.95 175.273 2203.14 179.375 2209.13 183.281C2215.25 187.188 2220.98 190.768 2226.32 194.023C2231.79 197.279 2236.6 199.948 2240.77 202.031C2240.51 205.026 2240.31 208.346 2240.18 211.992C2239.79 218.242 2239.6 226.51 2239.6 236.797C2239.6 247.474 2239.99 258.542 2240.77 270C2235.69 271.693 2230.03 273.776 2223.78 276.25C2217.53 278.594 2211.08 281.198 2204.44 284.062C2197.8 286.797 2191.03 289.727 2184.13 292.852C2177.36 295.846 2170.78 298.776 2164.4 301.641C2149.56 308.542 2134.26 315.703 2118.5 323.125L2107.96 271.562Z" fill="white"/>
</svg>
